<svg xmlns="http://www.w3.org/2000/svg" width="85" height="28" viewBox="147 338 581 191" fill="none" role="img" aria-label="Satto">
<g transform="translate(0.000000,886.000000) scale(0.100000,-0.100000)"
fill="currentColor" stroke="none">
<path d="M2090 5350 c-189 -24 -342 -126 -411 -272 -33 -70 -34 -77 -34 -193
0 -109 2 -125 27 -177 61 -131 172 -197 473 -278 325 -89 390 -134 390 -269
-1 -109 -60 -193 -161 -231 -147 -54 -341 -25 -438 68 -36 35 -86 125 -86 157
0 12 -22 15 -130 15 l-130 0 0 -24 c0 -43 48 -180 81 -229 60 -92 177 -171
309 -212 81 -24 266 -31 371 -12 175 30 339 137 407 264 62 117 65 309 7 409
-62 106 -198 193 -395 253 -341 104 -356 110 -398 150 -48 47 -66 96 -60 166
10 119 131 198 298 197 146 -1 248 -61 287 -171 l18 -51 126 0 126 0 -8 48
c-20 109 -65 190 -146 262 -51 46 -160 101 -233 118 -66 15 -215 22 -290 12z"/>
<path d="M4390 5008 l0 -138 -110 0 -111 0 3 -102 3 -103 107 -3 107 -3 3
-363 3 -363 35 -69 c42 -81 106 -136 190 -161 63 -18 246 -14 293 7 27 13 27
14 27 117 0 104 0 104 -22 96 -13 -4 -57 -8 -98 -8 -63 0 -80 4 -108 23 -66
47 -67 53 -70 405 l-3 317 150 0 150 0 3 105 3 105 -152 0 -153 0 0 134 0 135
-125 3 -125 3 0 -137z"/>
<path d="M5250 5005 l0 -135 -100 0 -100 0 0 -105 0 -105 100 0 100 0 0 -319
c0 -175 5 -342 10 -371 23 -119 83 -205 176 -251 44 -22 62 -24 179 -24 76 1
141 6 158 13 27 12 27 12 27 116 l0 105 -32 -10 c-55 -15 -135 -11 -177 11
-22 11 -50 36 -62 57 -24 38 -24 42 -27 355 l-3 317 148 3 148 3 3 103 3 102
-151 0 -150 0 0 135 0 135 -125 0 -125 0 0 -135z"/>
<path d="M3383 4885 c-74 -20 -160 -66 -214 -113 -52 -46 -105 -138 -115 -200
l-7 -42 126 0 126 0 20 44 c48 109 211 157 329 97 73 -37 122 -113 122 -186 0
-33 -4 -38 -42 -55 -24 -10 -79 -23 -123 -30 -237 -34 -287 -43 -362 -66 -68
-20 -91 -33 -138 -76 -86 -78 -100 -112 -100 -238 0 -91 3 -112 24 -154 51
-103 136 -158 274 -177 168 -23 305 11 423 107 l54 44 0 -65 0 -65 120 0 121
0 -3 453 -3 452 -28 60 c-52 112 -156 190 -287 215 -75 14 -256 11 -317 -5z
m384 -700 c-10 -138 -54 -212 -158 -264 -33 -16 -84 -33 -114 -36 -168 -21
-296 106 -225 223 38 62 103 88 300 117 63 10 133 24 155 30 22 7 42 13 44 14
2 1 1 -37 -2 -84z"/>
</g>
<circle cx="655.5" cy="456.5" r="60.5" fill="#FED546"/>
</svg>
